<?xml version="1.0" encoding="utf-8"?>
<!-- Generator: Adobe Illustrator 28.0.0, SVG Export Plug-In . SVG Version: 6.00 Build 0)  -->
<svg version="1.1" id="Livello_3" xmlns="http://www.w3.org/2000/svg" xmlns:xlink="http://www.w3.org/1999/xlink" x="0px" y="0px"
	 width="1190.6px" height="841.9px" viewBox="0 0 1190.6 841.9" style="enable-background:new 0 0 1190.6 841.9;"
	 xml:space="preserve">
<style type="text/css">
	.st0{clip-path:url(#SVGID_00000149359904222567643660000012281018489926476709_);fill:none;stroke:#CD1719;stroke-width:20;}
</style>
<g>
	<defs>
		<rect id="SVGID_1_" x="252.9" y="58.3" width="631.3" height="725.4"/>
	</defs>
	<clipPath id="SVGID_00000007413620925497641510000013854052280361999780_">
		<use xlink:href="#SVGID_1_"  style="overflow:visible;"/>
	</clipPath>
	
		<path style="clip-path:url(#SVGID_00000007413620925497641510000013854052280361999780_);fill:none;stroke:#CD1719;stroke-width:20;" d="
		M385.7,478c0,0-111.8-326.3-118.2-350.1c-6.4-23.8-10.1-49,17.4-57.7c27.5-8.7,62.3,13.8,62.3,44c0,30.2-7.3,90.3,21.1,112.3
		c28.4,22,64.2,31.2,64.2,47.8c0,28.3,11.9,42.4,45.8,47c33.9,4.6,63.2,9.2,83.4,16.5c20.2,7.3,58.7,5.5,86.2,0
		c27.5-5.5,85.2-17.4,131.1,4.6c45.8,22,88,62.8,93.5,135.6c5.5,72.9-2.7,118.2-11,151.2c-8.2,33-21.1,63.2-51.3,79.7
		c-30.2,16.5-106.3,48.1-138.4,59.1c-32.1,11-63.2,8.2-74.2-33c-11-41.2,16.5-60.9,55-61.9c38.5-0.9,67.8-2.8,88.9-5.5
		c21.1-2.7,43.1-9.6,45.8-64.6c2.7-55-1.8-95.3-4.6-126c-2.8-30.7-11.9-56.8-39.4-72c-27.5-15.1-52.2-12.6-67.8,19.8
		c-15.6,32.4,0.9,49.8,5.5,74.1c4.6,24.3,5.5,73.8-8.2,90.3s-35.6,31.6-65.1,24.7c-29.4-6.9-14.7-47.2-11.9-72.9
		c2.7-25.7,9.8-67.8-17.5-108.2c-27.4-40.3-74.1-57.3-107.1-41.2s-29.3,56.8-2.8,65.5c26.6,8.7,47.7,28,41.2,47.2
		c-6.4,19.2-28.4,27-52.2,24.3C433.3,526.1,403.1,523.4,385.7,478z"/>
</g>
</svg>
